<svg enable-background="new 0 0 418.795 418.795" viewBox="0 0 418.795 418.795" xmlns="http://www.w3.org/2000/svg"><path d="m175.049 88.525h168.891v199.738h-168.891z" fill="none" transform="matrix(.7071 .7071 -.7071 .7071 209.2187 -128.311)"/><path d="m28.971 299.493 66.209 66.209h106.429l30.008-30.007-119.424-119.424z" fill="#73d0f4"/><path d="m406.795 365.702h-171.244l179.731-179.729c4.686-4.688 4.686-12.285 0-16.971l-136.395-136.395c-2.252-2.25-5.303-3.514-8.486-3.514-3.182 0-6.234 1.264-8.484 3.514l-258.401 258.402c-4.688 4.686-4.688 12.283 0 16.971l78.209 78.207c2.25 2.252 5.303 3.516 8.484 3.516h316.586c6.627 0 12-5.373 12-12 0-6.628-5.373-12.001-12-12.001zm-136.395-307.638 119.424 119.424-141.236 141.236-119.423-119.424zm-68.791 307.638h-106.429l-66.209-66.209 83.223-83.223 119.424 119.424z" fill="#3d6889"/></svg>