<?xml version="1.0" encoding="utf-8"?>
<!-- Generator: Adobe Illustrator 22.0.1, SVG Export Plug-In . SVG Version: 6.00 Build 0)  -->
<svg version="1.1" id="Layer_1" xmlns="http://www.w3.org/2000/svg" xmlns:xlink="http://www.w3.org/1999/xlink" x="0px" y="0px"
	 viewBox="0 0 332 512" style="enable-background:new 0 0 332 512;" xml:space="preserve">
<style type="text/css">
	.st0{fill:#466786;}
	.st1{fill:#88CEF0;}
</style>
<path class="st0" d="M272.8,270.7h-10.9c-10.8,75.9-21.6,151.9-32.4,227.8l-1.1,7.7l-7.7-0.9c-18.5-2.1-36.5-3.2-54.5-3.2
	s-36.1,1-54.5,3.2l-7.7,0.9l-1.1-7.7c-10.8-75.9-21.6-151.9-32.4-227.8H59.6c-5.5,0-9.9-5.6-9.9-12.3c0-6.8,4.4-12.4,9.9-12.4H273
	c5.5,0,9.9,5.6,9.9,12.4C282.9,265.1,278.4,270.7,272.8,270.7L272.8,270.7z M90.3,293.6c8.8-1,17.5-1.8,26.3-2.4
	c-0.5-6.8-1-13.6-1.5-20.5h-28C88.2,278.3,89.3,286,90.3,293.6z M96,332.7c7.7-0.9,15.6-1.6,23.4-2.1c-0.6-7.8-1.1-15.7-1.7-23.5
	c-8.3,0.6-16.7,1.4-25.1,2.4C93.7,317.1,94.8,324.9,96,332.7z M122.2,369.8c-0.6-7.8-1.1-15.6-1.7-23.3c-7.4,0.5-14.9,1.2-22.3,2
	c1,7.7,2.1,15.5,3.3,23.1C108.3,370.9,115.3,370.3,122.2,369.8L122.2,369.8z M107,410.7c6-0.7,12-1.2,18-1.7
	c-0.6-7.8-1.1-15.6-1.7-23.4c-6.5,0.5-13,1.1-19.6,1.8C104.8,395.2,105.9,402.9,107,410.7L107,410.7z M112.6,449.7
	c5.1-0.5,10.1-0.9,15.2-1.3c-0.6-7.8-1.1-15.7-1.7-23.5c-5.6,0.4-11.2,1-16.8,1.5C110.4,434.2,111.5,442,112.6,449.7z M130.5,487.5
	c-0.6-7.7-1.1-15.5-1.7-23.2c-4.7,0.4-9.3,0.8-14,1.3c1.1,7.6,2.2,15.4,3.3,23.1C122.3,488.2,126.4,487.9,130.5,487.5L130.5,487.5z
	 M132.5,290.1c8.8-0.4,17.5-0.7,26.3-0.9c0-6.2,0-12.3,0-18.6h-27.6C131.6,277.2,132,283.6,132.5,290.1z M135.3,329.5
	c7.8-0.4,15.7-0.6,23.5-0.6c0-7.9,0-15.7,0-23.6c-8.4,0.1-16.8,0.4-25.2,0.8C134.2,313.8,134.7,321.7,135.3,329.5L135.3,329.5z
	 M138.1,368.7c6.9-0.3,13.8-0.5,20.7-0.6c0-7.8,0-15.6,0-23.4c-7.5,0.1-14.9,0.3-22.4,0.6C137,353.2,137.5,361,138.1,368.7z
	 M140.9,408c6-0.3,12-0.4,17.9-0.6c0-7.8,0-15.6-0.1-23.4c-6.5,0.1-13.1,0.3-19.5,0.6C139.7,392.5,140.3,400.3,140.9,408L140.9,408z
	 M158.8,462.9c-4.7,0.1-9.3,0.2-14,0.4c0.6,7.7,1.1,15.5,1.7,23.3c4.1-0.2,8.2-0.3,12.3-0.3C158.8,478.5,158.8,470.7,158.8,462.9z
	 M158.8,423.4c-5.6,0.1-11.2,0.3-16.8,0.5l1.6,23.5c5.1-0.2,10.1-0.3,15.2-0.4C158.8,439.1,158.8,431.3,158.8,423.4z M188.7,463.4
	c-4.7-0.2-9.3-0.4-14-0.4v23.4c4.1,0.1,8.2,0.1,12.4,0.3C187.7,478.9,188.2,471.1,188.7,463.4z M191.6,423.9
	c-5.6-0.2-11.2-0.4-16.8-0.5v23.5c5.1,0.1,10.1,0.3,15.1,0.4L191.6,423.9z M194.3,384.6c-6.5-0.3-13.1-0.5-19.6-0.6v23.4
	c6,0.1,12,0.2,18,0.6C193.2,400.2,193.8,392.5,194.3,384.6z M197.1,345.4c-7.5-0.4-14.9-0.6-22.3-0.6v23.4
	c6.9,0.1,13.8,0.3,20.7,0.6C196,361,196.6,353.2,197.1,345.4z M199.9,306c-8.4-0.4-16.8-0.6-25.2-0.8v23.6
	c7.8,0.1,15.7,0.3,23.5,0.6C198.8,321.7,199.3,313.8,199.9,306L199.9,306z M202.4,270.7h-27.7v18.6c8.8,0.2,17.5,0.4,26.3,0.9
	C201.5,283.6,201.9,277.2,202.4,270.7z M218.8,465.6c-4.7-0.5-9.4-0.9-14-1.3c-0.6,7.7-1.1,15.5-1.7,23.2c4.1,0.3,8.3,0.7,12.4,1.2
	C216.6,480.9,217.6,473.2,218.8,465.6L218.8,465.6z M224.3,426.4c-5.6-0.6-11.3-1.1-16.8-1.5c-0.6,7.8-1.1,15.7-1.7,23.5
	c5.1,0.4,10.1,0.8,15.1,1.3C222,441.9,223.1,434.2,224.3,426.4z M229.8,387.4c-6.5-0.7-13.1-1.2-19.6-1.8
	c-0.5,7.8-1.1,15.6-1.6,23.4c6,0.4,11.9,1,17.9,1.7C227.6,402.9,228.7,395.2,229.8,387.4L229.8,387.4z M235.4,348.5
	c-7.5-0.8-14.9-1.5-22.4-2c-0.6,7.7-1.1,15.5-1.7,23.3c6.9,0.5,13.7,1.1,20.7,1.9C233.2,363.9,234.3,356.2,235.4,348.5L235.4,348.5z
	 M241,309.4c-8.4-1-16.8-1.8-25.2-2.4c-0.6,7.8-1.1,15.7-1.7,23.5c7.7,0.5,15.6,1.3,23.5,2.1C238.7,324.9,239.8,317.1,241,309.4z
	 M246.4,270.7h-28.1c-0.4,6.9-0.9,13.7-1.4,20.5c8.8,0.6,17.5,1.4,26.3,2.4C244.3,286,245.3,278.3,246.4,270.7z"/>
<path class="st1" d="M223.2,216.6c-3.8-2.2-7.3-5-10.4-8.4c5,2.1,10.6,2.5,15.8,0.8c-4.6-2-8.9-4.8-12.7-8.4
	c1.2-5.9,0-12.2-3.8-17.4c-7.2-10.1-21.3-12.4-31.3-5.1c-1.4,1-2.7,2.2-3.8,3.5c-10.1-15.7-12.5-34.3-7.9-51.3
	c-3.8,0.4-7.6,1.7-10.9,4.1c-6.3,4.5-9.6,11.8-9.4,19c-2-3.1-3.2-6.5-3.6-9.9l-0.2,0.2c-8.8,6.3-11.7,17.9-7.4,27.5
	c-1.5-1.2-2.9-2.7-4.1-4.3c-0.8-1.2-1.5-2.4-2.1-3.7c-5.6,7.5-6,18-0.4,26.1c-9.4-2.7-17.9-8.5-24.1-17c-1.1-1.5-2-3-2.9-4.5
	c0.6,11.8,4.5,23.5,11.9,33.8c24.1,33.5,65,31.9,89.1,14.6l2.3-1.8C212.3,216,217.8,216.7,223.2,216.6L223.2,216.6z"/>
</svg>
