<?xml version="1.0" standalone="no"?>
<!DOCTYPE svg PUBLIC "-//W3C//DTD SVG 20010904//EN"
 "http://www.w3.org/TR/2001/REC-SVG-20010904/DTD/svg10.dtd">
<svg version="1.0" xmlns="http://www.w3.org/2000/svg"
 width="512.000000pt" height="512.000000pt" viewBox="0 0 512.000000 512.000000"
 preserveAspectRatio="xMidYMid meet">
<metadata>
Created by potrace 1.11, written by Peter Selinger 2001-2013
</metadata>
<g transform="translate(0.000000,512.000000) scale(0.100000,-0.100000)"
fill="#000000" stroke="none">
<path d="M3267 4757 c-32 -8 -267 -238 -1637 -1609 -880 -880 -1607 -1613
-1616 -1630 -18 -34 -13 -109 8 -136 7 -10 235 -241 508 -514 347 -348 505
-499 525 -504 17 -5 915 -8 1996 -9 l1966 0 36 28 c20 15 41 36 46 46 15 27
23 81 16 110 -7 34 -52 84 -88 99 -21 9 -289 12 -1087 12 l-1058 0 1097 1098
c604 603 1105 1109 1115 1123 9 15 19 40 22 55 14 78 44 45 -866 955 -472 473
-871 864 -887 870 -41 16 -54 17 -96 6z m638 -2667 c-473 -473 -864 -859 -868
-857 -5 1 -334 328 -733 727 l-724 724 862 863 863 863 730 -730 730 -730
-860 -860z"/>
</g>
</svg>
